<?xml version="1.0" encoding="utf-8"?>
<!-- Generator: Adobe Illustrator 16.0.0, SVG Export Plug-In . SVG Version: 6.00 Build 0)  -->
<!DOCTYPE svg PUBLIC "-//W3C//DTD SVG 1.1//EN" "http://www.w3.org/Graphics/SVG/1.1/DTD/svg11.dtd">
<svg version="1.1" xmlns="http://www.w3.org/2000/svg" xmlns:xlink="http://www.w3.org/1999/xlink" x="0px" y="0px" width="15px"
	 height="15px" viewBox="0 0 15 15" enable-background="new 0 0 15 15" xml:space="preserve">
<g id="Capa_1">
	<rect width="15" height="15"/>
	<g>
		<path display="none" fill="#FFFFFF" d="M10.521,2.681h1.468v-2.68H9.322C9.1-0.008,6.387-0.06,5.684,2.621
			c-0.01,0.028-0.235,0.666-0.235,2.155L3.011,4.784v2.811l2.442-0.007V15h3.73V7.594h2.469V4.776H9.183V3.889
			C9.183,3.338,9.415,2.681,10.521,2.681z M11.034,5.393v1.583H8.565v7.407H6.07V6.968L3.628,6.975V5.399l2.448-0.007L6.07,5.078
			C6.038,3.5,6.263,2.837,6.273,2.805c0.606-2.309,2.923-2.193,3.023-2.187l2.076,0v1.445h-0.851c-1.441,0-1.955,0.942-1.955,1.824
			v1.504H11.034L11.034,5.393z"/>
	</g>
</g>
<g id="Layer_2" display="none">
	<path display="inline" fill="#FFFFFF" d="M15,3.001c-0.943,0.044-0.923,0.04-1.029,0.049l0.559-1.596c0,0-1.744,0.642-2.187,0.757
		c-1.161-1.044-2.888-1.09-4.122-0.332C7.21,2.5,6.668,3.567,6.849,4.814C4.882,4.541,3.225,3.609,1.917,2.037L1.502,1.54
		L1.193,2.107C0.802,2.826,0.673,3.646,0.828,4.418C0.892,4.734,1,5.037,1.149,5.32L0.794,5.183L0.752,5.775
		C0.709,6.378,0.91,7.082,1.289,7.656c0.106,0.162,0.244,0.341,0.418,0.516L1.523,8.145l0.224,0.68
		c0.294,0.893,0.905,1.584,1.698,1.968c-0.792,0.336-1.432,0.55-2.483,0.896L0,12.005l0.889,0.485
		c0.339,0.186,1.536,0.805,2.719,0.99c2.63,0.412,5.591,0.076,7.584-1.719c1.679-1.512,2.229-3.663,2.115-5.901
		c-0.017-0.339,0.075-0.663,0.261-0.911C13.941,4.453,14.998,3.004,15,3.001z M12.866,4.424c-0.309,0.412-0.464,0.938-0.436,1.481
		c0.115,2.258-0.499,4.009-1.826,5.204c-1.55,1.396-4.051,1.943-6.86,1.504c-0.509-0.08-1.035-0.259-1.47-0.438
		c0.882-0.303,1.563-0.574,2.662-1.094l1.535-0.727l-1.695-0.109c-0.812-0.052-1.488-0.445-1.903-1.084
		c0.221-0.013,0.433-0.049,0.645-0.107l1.617-0.45l-1.63-0.399C2.713,8.012,2.262,7.537,2.022,7.174
		C1.865,6.936,1.763,6.69,1.701,6.465C1.864,6.509,2.055,6.54,2.362,6.57L3.871,6.72L2.676,5.787
		C1.814,5.115,1.469,4.106,1.722,3.136C4.41,5.924,7.566,5.715,7.884,5.788c-0.07-0.679-0.072-0.681-0.09-0.745
		C7.387,3.604,8.279,2.874,8.681,2.627c0.841-0.516,2.173-0.594,3.097,0.256c0.199,0.184,0.47,0.256,0.723,0.193
		c0.227-0.056,0.412-0.115,0.594-0.181l-0.379,1.083h0.484C13.107,4.102,12.998,4.248,12.866,4.424z"/>
</g>
<g id="Layer_3">
	<path fill="#FFFFFF" d="M7.564,0.026c-4.122,0-7.487,3.364-7.487,7.487C0.078,11.635,3.443,15,7.564,15
		c4.121,0,7.486-3.366,7.486-7.486C15.051,3.39,11.686,0.026,7.564,0.026z M12.643,3.288c0.935,1.12,1.505,2.555,1.528,4.12
		C13,7.134,11.698,7.115,10.374,7.356C10.029,7.419,9.685,7.5,9.343,7.595C9.229,7.286,9.107,6.977,8.979,6.673
		C8.847,6.362,8.708,6.055,8.563,5.755C10.142,5.152,11.853,4.253,12.643,3.288z M7.564,0.904c1.719,0,3.288,0.661,4.465,1.741
		C11.57,3.27,10.262,4.184,8.163,4.97C7.431,3.604,6.551,2.35,5.536,1.223C6.175,1.016,6.857,0.904,7.564,0.904z M4.667,1.574
		C5.704,2.683,6.594,3.92,7.329,5.258C5.145,5.967,2.933,6.254,1.114,6.07C1.556,4.091,2.889,2.443,4.667,1.574z M0.955,7.514
		c0-0.193,0.009-0.388,0.026-0.578C1.381,6.98,1.799,7,2.232,7c1.706,0,3.623-0.328,5.504-0.952
		c0.288,0.588,0.546,1.193,0.772,1.813C7.776,8.124,7.062,8.46,6.391,8.859c-1.644,0.979-2.846,2.238-3.345,3.472
		C1.759,11.126,0.955,9.411,0.955,7.514z M7.564,14.123c-1.413,0-2.722-0.445-3.798-1.203c0.334-1.128,1.462-2.347,3.074-3.306
		c0.569-0.339,1.232-0.658,1.956-0.917c0.514,1.611,0.826,3.313,0.927,5.063C9.046,13.995,8.319,14.123,7.564,14.123z
		 M10.578,13.394c-0.121-1.705-0.438-3.364-0.949-4.96c1.422-0.392,3.001-0.521,4.497-0.134
		C13.861,10.522,12.49,12.411,10.578,13.394z"/>
</g>
</svg>
