<?xml version="1.0" encoding="utf-8"?>
<!-- Generator: Adobe Illustrator 16.0.0, SVG Export Plug-In . SVG Version: 6.00 Build 0)  -->
<!DOCTYPE svg PUBLIC "-//W3C//DTD SVG 1.1//EN" "http://www.w3.org/Graphics/SVG/1.1/DTD/svg11.dtd">
<svg version="1.1" id="Capa_1" xmlns="http://www.w3.org/2000/svg" xmlns:xlink="http://www.w3.org/1999/xlink" x="0px" y="0px"
	 width="15px" height="15px" viewBox="0 0 15 15" enable-background="new 0 0 15 15" xml:space="preserve">
<rect width="15" height="15"/>
<g>
	<path fill="#FFFFFF" d="M10.521,2.681h1.468v-2.68H9.322C9.1-0.008,6.387-0.06,5.684,2.621c-0.01,0.028-0.235,0.666-0.235,2.155
		L3.011,4.784v2.811l2.442-0.007V15h3.73V7.594h2.469V4.776H9.183V3.889C9.183,3.338,9.415,2.681,10.521,2.681z M11.034,5.393v1.583
		H8.565v7.407H6.07V6.968L3.628,6.975V5.399l2.448-0.007L6.07,5.078C6.038,3.5,6.263,2.837,6.273,2.805
		c0.606-2.309,2.923-2.193,3.023-2.187l2.076,0v1.445h-0.851c-1.441,0-1.955,0.942-1.955,1.824v1.504H11.034L11.034,5.393z"/>
</g>
</svg>
